# xmcd
#
# Track frame offsets:
#	150
#	12772
#	33287
#	41267
#	53010
#	63337
#	72200
#	81145
#	90597
#	102805
#	116282
#	127792
#	140185
#	149527
#	158732
#	167487
#	181842
#	190625
#	202597
#	215282
#	225772
#	238340
#	252072
#	260622
#	270065
#	278525
#	291055
#	297042
#	305217
#	312577
#
# Disc length: 4275 seconds
#
# Revision: 6
# Processed by: cddbd v1.5.2PL0 Copyright (c) Steve Scherf et al.
# Submitted via: dBpowerAMP V4.0
#
DISCID=8d10b11e
DTITLE=Various Artist - The Greatest Stars of Bluegrass Music
DYEAR=1989
DGENRE=Bluegrass
TTITLE0=Colorado Calling Me - Jim and Jesse
TTITLE1=In The Pines - Mac Wiseman
TTITLE2=Under The Double Eagle - Donna Stoneman
TTITLE3=Blue Is The Color Of Lonesome - Bluegrass Cardinals
TTITLE4=High Level Hornpipe - Bobby Osborne
TTITLE5=Wish I'd Stayed In The Wagon Yard - Grandpa Jones
TTITLE6=Down In Union County - Buddy Spicher and Benny Martin
TTITLE7=Palms Of Victory - Nashville Grass and Betty Jean Robinson
TTITLE8=Lonesome Day - Osborne Brothers
TTITLE9=Old Black Mountain Saturday Night - Joe Maphis
TTITLE10=Little Rosewood Casket - Josh Graves
TTITLE11=The Johnson Boys - Lester Flatt and The Nashville Grass
TTITLE12=Arkansas Traveler - Fiddlin' Red Herron
TTITLE13=Blue Ridge Mountain Blues - The Stonemans
TTITLE14=Down Yonder - Jhonny Gimble
TTITLE15=Skyline Drive  - Don Reno and The Tennessee Cut-Ups
TTITLE16=Ida Red - Mac Wiseman
TTITLE17=Are You Tired Of Me My Darling - Jim and Jesse
TTITLE18=Lonesome Road Blues - Merle Travis and Joe Maphis
TTITLE19=Sailing For Glory - Bluegrass Cardinals
TTITLE20=Grass Country - Wynn Osborne
TTITLE21=Mother Maybelle - Joe Maphis and Rose Lee
TTITLE22=Somebody Touched Me - Carl Story and His Rambling Mountaineers
TTITLE23=Home In The Mountains - Don Reno and Bill Harrell and The Tennessee Cut-Ups
TTITLE24=Cannonball Blues - Lester Flatt's Nashville Grass
TTITLE25=Bluebirds Are Singing For Me - Osborne Brothers and Mac Wiseman
TTITLE26=White Heat - Merle Travis
TTITLE27=Forked Deer - Buddy Spicher and Wynn Osborne
TTITLE28=Carry Me Back To Old Virginny - Heights Of Grass
TTITLE29=Liberty - Joe Maphis
EXTD=Bluegrass
EXTT0=
EXTT1=
EXTT2=
EXTT3=
EXTT4=
EXTT5=
EXTT6=
EXTT7=
EXTT8=
EXTT9=
EXTT10=
EXTT11=
EXTT12=
EXTT13=
EXTT14=
EXTT15=
EXTT16=
EXTT17=
EXTT18=
EXTT19=
EXTT20=
EXTT21=
EXTT22=
EXTT23=
EXTT24=
EXTT25=
EXTT26=
EXTT27=
EXTT28=
EXTT29=
PLAYORDER=
